# xmcd CD database file
#
# Track frame offsets:
#	150
#	10539
#	22736
#	35809
#	48961
#	61185
#	73314
#	85048
#	98174
#	111119
#	124013
#	136155
#	148235
#	161691
#	174013
#	185918
#	198981
#	210416
#	221506
#	232969
#
# Disc length: 3257 seconds
#
# Revision: 0
# Processed by: cddbd v1.5.2PL0 Copyright (c) Steve Scherf et al.
# Submitted via: CDex 1.51
#
DISCID=0e0cb714
DTITLE=Bob Wills and His Texas Playboys - Bob Wills and His Texas Playboys
DYEAR=2007
DGENRE=Country
TTITLE0=Bubles in my beer
TTITLE1=Ida red likes to boogie
TTITLE2=faded love
TTITLE3=the warm red wine
TTITLE4=keeper of my heart
TTITLE5=time changes everything
TTITLE6=new san antinio rose
TTITLE7=right or wrong
TTITLE8=corrine, corrina
TTITLE9=take me back to tulsa
TTITLE10=home in san antone
TTITLE11=roly poly
TTITLE12=stay a little longer
TTITLE13=you're from texas
TTITLE14=that's what i like about the south
TTITLE15=blues for dixie
TTITLE16=dog house blues
TTITLE17=don't be ashamed of your age
TTITLE18=i ain't got nobody(and nobody cares for me)
TTITLE19=new spanish two step
EXTD=YEAR: 2007
EXTT0=
EXTT1=
EXTT2=
EXTT3=
EXTT4=
EXTT5=
EXTT6=
EXTT7=
EXTT8=
EXTT9=
EXTT10=
EXTT11=
EXTT12=
EXTT13=
EXTT14=
EXTT15=
EXTT16=
EXTT17=
EXTT18=
EXTT19=
PLAYORDER=
